<svg xmlns="http://www.w3.org/2000/svg" viewBox="0 0 198 195"><defs><clipPath id="a"><path d="M0 0h198v195H0z"/></clipPath></defs><g clip-path="url(#a)"><g data-name="Publishing Surface"><g data-name="Outline no shadow"><path data-name="Path 185" d="M35.063 0h127.874A35.241 35.241 0 01198 35.417v124.166A35.241 35.241 0 01162.937 195H35.063A35.241 35.241 0 010 159.583V35.417A35.241 35.241 0 0135.063 0z" fill="#49021f"/></g></g><g fill="#f36" data-name="Outlined Mnemonics &amp; Logos"><path data-name="Path 143" d="M71.906 51.348v84.611q0 1.329-1.2 1.328h-16.07q-1.064 0-1.062-1.328V51.348q0-1.062 1.2-1.063h16.069a.94.94 0 011.063 1.063z"/><path data-name="Path 144" d="M119.457 138.614a41.153 41.153 0 01-17.732-3.719 28.192 28.192 0 01-12.419-11.224q-4.517-7.5-4.516-18.795a34.684 34.684 0 014.516-17.4 33.154 33.154 0 0113.15-12.751q8.632-4.782 20.853-4.782.663 0 1.727.066t2.524.2V44.043c0-.619.266-.93.8-.93h16.736a.7.7 0 01.8.8v78.5q0 2.26.2 4.915t.332 4.782a1.373 1.373 0 01-.8 1.328 65.884 65.884 0 01-13.415 3.985 72.02 72.02 0 01-12.751 1.2zm8.1-16.47V85.88a13.177 13.177 0 00-2.191-.4 26.49 26.49 0 00-2.723-.133 20.51 20.51 0 00-9.3 2.125 18.155 18.155 0 00-6.973 6.11q-2.724 3.985-2.723 10.493a23.423 23.423 0 001.395 8.5 16.16 16.16 0 003.719 5.844 14.162 14.162 0 005.578 3.321 21.854 21.854 0 006.84 1.062q1.859 0 3.453-.133a14.216 14.216 0 002.928-.525z"/></g></g></svg>
